<?xml version="1.0" standalone="no"?>
<!DOCTYPE svg PUBLIC "-//W3C//DTD SVG 20010904//EN"
 "http://www.w3.org/TR/2001/REC-SVG-20010904/DTD/svg10.dtd">
<svg version="1.0" xmlns="http://www.w3.org/2000/svg"
 width="833.000000pt" height="1280.000000pt" viewBox="0 0 833.000000 1280.000000"
 preserveAspectRatio="xMidYMid meet">
<metadata>
Created by potrace 1.15, written by Peter Selinger 2001-2017
</metadata>
<g transform="translate(0.000000,1280.000000) scale(0.100000,-0.100000)"
fill="#000000" stroke="none">
<path d="M2665 12354 c-11 -3 -49 -15 -85 -27 -51 -16 -87 -21 -165 -20 -125
2 -192 -15 -237 -61 l-33 -33 -290 -6 c-544 -12 -777 -43 -1072 -143 -361
-121 -609 -314 -728 -565 -39 -82 -60 -175 -51 -224 7 -38 53 -86 60 -64 2 8
10 32 16 54 16 54 68 143 88 154 29 15 84 21 195 22 l108 1 54 -59 c61 -68
111 -94 228 -118 76 -16 335 -56 477 -75 49 -7 84 -17 100 -30 45 -37 124 -86
155 -96 25 -8 35 -21 56 -74 21 -55 32 -69 67 -88 l42 -23 0 -64 c0 -69 5 -76
63 -95 23 -7 42 -21 47 -33 15 -42 30 -144 30 -213 0 -38 5 -120 10 -182 l9
-112 -66 -188 c-96 -275 -113 -325 -113 -329 0 -2 10 -3 23 -3 33 0 43 -11 51
-54 4 -21 16 -46 27 -55 20 -16 19 -18 -26 -184 -25 -92 -56 -195 -69 -230
-13 -34 -32 -108 -41 -163 -15 -85 -16 -110 -6 -155 6 -30 16 -72 21 -94 5
-24 4 -76 -2 -130 -19 -168 1 -275 61 -329 18 -16 21 -30 21 -102 l0 -82 -75
-140 c-41 -77 -75 -143 -75 -146 0 -3 13 -6 28 -6 83 0 83 -93 -1 -265 -31
-63 -53 -115 -49 -115 4 0 40 45 81 100 41 55 78 100 82 100 18 0 39 -47 39
-85 -2 -102 -50 -170 -157 -215 -43 -19 -97 -46 -120 -61 -41 -27 -42 -27 -59
-8 -26 28 -66 23 -124 -16 -29 -19 -54 -35 -56 -35 -12 0 -1 86 20 147 l24 71
-26 -7 c-32 -8 -66 -70 -81 -146 -24 -121 -45 -223 -82 -400 -101 -482 -119
-609 -91 -637 17 -17 20 -11 42 83 41 171 73 279 86 296 12 16 14 -20 13 -262
-2 -236 1 -292 16 -355 10 -43 19 -134 22 -215 4 -111 11 -164 35 -255 17 -70
31 -154 35 -215 5 -91 8 -103 33 -130 23 -26 26 -37 22 -77 -4 -45 -5 -47 -43
-53 -37 -6 -39 -8 -39 -45 0 -39 11 -58 88 -145 24 -27 81 -106 127 -175 172
-262 286 -412 499 -655 758 -863 1697 -1537 2850 -2046 98 -43 180 -79 181
-79 1 0 5 8 7 18 4 12 21 23 49 30 41 11 47 10 84 -17 219 -156 452 -297 621
-378 114 -54 277 -104 292 -89 4 4 7 45 7 91 0 46 3 81 6 77 10 -11 127 -190
131 -200 6 -16 164 -115 508 -315 l335 -196 6 -138 c6 -154 19 -211 61 -255
54 -58 100 -18 137 119 11 43 50 238 85 433 36 195 73 394 82 442 l16 87 70
-35 c39 -19 73 -33 76 -30 3 4 -27 20 -66 38 -47 21 -72 38 -72 48 0 25 56
288 90 420 35 140 63 287 57 303 -2 7 -9 -15 -16 -48 -68 -351 -150 -535 -237
-535 -106 0 -238 288 -378 825 -30 116 -55 203 -55 194 -1 -23 91 -384 134
-524 20 -66 57 -169 82 -230 25 -60 45 -117 45 -125 -1 -8 -12 -94 -26 -190
-13 -96 -30 -221 -37 -277 -7 -57 -15 -103 -20 -103 -4 0 -110 66 -235 146
-657 421 -1387 865 -1400 852 -2 -3 20 -17 48 -33 95 -51 467 -275 748 -450
250 -156 830 -523 839 -531 4 -4 -19 -296 -27 -346 l-7 -36 -295 172 c-162 95
-346 204 -409 243 -114 69 -115 71 -173 164 -72 114 -127 189 -138 189 -4 0
-2 -24 6 -52 7 -29 14 -82 14 -117 l0 -63 -37 7 c-167 30 -466 188 -795 418
l-107 75 -46 -10 c-45 -10 -49 -9 -78 20 -18 16 -81 62 -142 102 -60 40 -128
87 -150 104 -22 18 -69 52 -105 76 -36 24 -94 66 -130 93 -36 27 -118 80 -183
119 -65 38 -121 76 -124 85 -3 8 -2 32 3 52 11 44 38 59 131 70 l68 9 539
-335 c296 -183 540 -332 542 -330 3 3 -850 637 -1248 927 -86 63 -156 116
-154 117 1 2 58 -20 127 -48 289 -117 712 -246 933 -284 88 -15 303 -19 361
-6 44 9 44 41 0 90 l-37 40 69 -5 c56 -5 89 -17 188 -65 201 -98 362 -142 512
-140 161 3 247 51 307 172 20 40 36 82 36 94 0 12 3 25 7 29 11 11 13 316 2
358 -5 20 -21 50 -34 66 -35 42 -31 45 22 16 26 -14 66 -30 89 -35 38 -10 42
-14 47 -49 3 -21 16 -67 30 -102 19 -46 27 -90 31 -158 l5 -95 -14 94 c-17
113 -27 142 -17 51 4 -36 7 -137 7 -225 0 -184 -14 -241 -72 -306 -73 -81
-153 -110 -303 -110 -173 0 -392 55 -624 157 -55 24 -101 42 -103 40 -8 -7
206 -99 329 -140 301 -102 533 -102 670 -2 81 60 127 188 128 356 1 63 1 64
13 31 8 -23 33 -51 76 -84 35 -28 61 -43 58 -34 -10 27 -29 186 -24 200 3 7
-1 46 -8 87 -7 41 -16 121 -20 177 l-7 102 38 10 c55 15 136 64 180 108 74 76
156 222 274 488 33 75 111 218 179 329 l120 196 2 77 c2 58 -1 78 -12 82 -11
5 -14 29 -14 104 0 85 -3 101 -19 112 -16 12 -18 23 -13 69 3 29 12 68 21 84
9 18 16 55 16 89 l0 58 -69 -180 c-183 -484 -301 -712 -440 -853 -87 -87 -162
-113 -213 -73 -32 25 -74 121 -82 188 l-6 51 50 7 c61 8 75 21 84 73 l6 39 63
5 c141 12 219 98 216 237 l-2 56 -6 -71 c-9 -95 -43 -154 -108 -186 -48 -23
-51 -23 -388 -22 -187 0 -407 6 -490 13 -519 42 -914 130 -1240 276 -33 15
-55 22 -50 17 6 -5 51 -28 101 -50 412 -184 968 -275 1652 -271 123 0 226 -1
229 -4 3 -3 2 -24 -2 -45 -8 -48 -4 -46 -182 -67 -161 -19 -437 -19 -614 0
-296 31 -570 110 -817 234 l-77 39 -63 -24 -62 -23 -143 72 c-246 126 -536
310 -850 540 l-138 101 23 18 c31 24 35 23 87 -20 81 -66 87 -67 28 -5 -63 65
-64 95 -2 49 19 -14 51 -38 70 -52 19 -15 35 -24 35 -21 0 3 -29 27 -65 53
-36 26 -65 49 -65 50 0 1 43 33 96 69 52 37 149 107 215 156 65 49 122 89 125
89 15 0 286 -178 349 -230 39 -31 120 -91 180 -132 378 -259 731 -395 1077
-414 99 -5 129 -12 237 -50 69 -24 126 -42 128 -40 2 2 -47 22 -109 46 l-112
43 140 24 c210 35 314 78 378 154 14 16 29 29 35 29 18 0 243 -116 285 -147
l39 -28 25 20 c194 158 294 322 378 617 23 81 25 104 19 173 -9 111 -12 131
-24 205 -6 36 -11 70 -11 75 0 6 -18 -30 -38 -80 -40 -94 -91 -196 -92 -182 0
4 11 30 25 57 14 28 23 50 20 50 -3 0 -53 -96 -111 -212 -59 -117 -133 -255
-166 -305 -63 -97 -96 -120 -85 -60 l6 32 -19 -35 c-23 -41 -27 -23 -5 21 9
16 59 136 111 267 111 275 169 390 232 462 37 42 50 51 72 48 l26 -4 -48 171
c-109 387 -194 623 -296 825 -107 211 -204 338 -299 392 -42 24 -70 52 -125
127 -83 112 -319 408 -372 466 l-36 40 6 -225 c4 -124 4 -223 2 -220 -3 3 -45
98 -93 213 -49 114 -90 206 -92 204 -2 -2 37 -106 87 -230 49 -125 90 -239 90
-254 0 -20 10 -36 34 -55 89 -71 196 -261 235 -418 30 -116 36 -221 22 -380
-43 -502 -139 -795 -285 -864 -60 -28 -190 -15 -271 27 -16 8 -81 51 -144 96
-90 63 -126 83 -170 92 -185 37 -531 155 -531 180 0 6 7 20 16 33 l15 24 94
-44 c168 -78 495 -178 510 -154 2 4 12 50 21 101 12 69 15 139 12 260 l-3 166
29 -18 c15 -9 52 -48 80 -86 125 -163 218 -176 263 -37 12 36 17 98 18 239 l3
190 -7 -181 c-5 -147 -10 -186 -24 -207 -22 -34 -47 -34 -85 -2 -34 28 -112
144 -112 166 0 8 -20 50 -44 93 -63 110 -70 135 -70 271 -1 106 2 126 23 173
28 61 70 101 150 141 32 17 72 41 88 55 17 14 33 23 37 19 3 -3 6 34 6 83 l0
89 -59 38 c-88 57 -189 153 -223 214 l-31 54 -38 -37 c-21 -21 -40 -36 -43
-33 -9 10 -166 441 -166 456 0 8 168 -5 290 -23 129 -19 168 -36 248 -108 34
-31 66 -56 69 -56 3 0 -39 46 -93 103 -75 76 -129 146 -215 277 -225 341 -309
495 -309 567 0 40 -5 48 -85 127 -98 99 -191 221 -231 303 -22 46 -28 73 -29
126 0 68 0 69 -48 117 -27 27 -57 52 -66 55 -14 4 -20 26 -30 108 -29 230 -85
375 -159 413 -12 6 -37 42 -57 81 -22 45 -63 101 -115 155 -55 60 -80 94 -80
111 0 69 -84 226 -149 279 -39 32 -105 203 -136 350 -7 36 -21 80 -29 97 -9
16 -16 48 -16 69 0 46 -59 172 -93 199 -13 10 -40 54 -60 97 -95 200 -262 358
-511 483 -182 91 -397 131 -650 121 -101 -5 -126 -2 -169 14 -51 19 -164 32
-202 22z m367 -118 l167 -1 88 -86 c48 -47 114 -105 146 -128 31 -24 57 -45
57 -47 0 -1 -24 10 -54 25 -30 16 -74 32 -98 36 -33 6 -60 22 -118 72 l-75 65
74 -69 74 -70 -29 -6 c-42 -9 -88 -40 -115 -79 -20 -29 -17 -28 28 14 49 45
106 68 135 54 7 -3 55 -37 107 -75 87 -64 248 -158 256 -149 2 1 -33 22 -78
46 -103 54 -279 182 -251 182 20 0 41 -10 159 -75 160 -88 233 -152 257 -225
21 -64 256 -302 378 -382 47 -31 44 -28 -79 75 -97 81 -281 283 -281 308 0 10
0 21 0 24 0 7 -41 55 -75 87 l-30 29 75 -35 c88 -41 188 -80 179 -72 -3 4 -44
25 -90 47 -131 63 -245 145 -356 256 -107 106 -123 130 -75 112 64 -24 207
-101 288 -155 104 -69 266 -225 319 -307 21 -31 53 -66 71 -78 44 -27 108
-100 133 -152 21 -44 60 -234 83 -397 17 -130 13 -365 -9 -547 l-19 -153 29 0
c37 0 163 -97 283 -216 l84 -85 0 -52 c-1 -67 -30 -134 -63 -142 -44 -11 -114
32 -254 158 -13 11 -23 18 -23 15 0 -3 36 -36 80 -74 55 -48 89 -86 110 -125
52 -98 37 -99 -63 -3 -50 49 -121 113 -157 143 -53 43 -50 40 15 -19 189 -173
302 -294 335 -359 33 -66 48 -148 36 -196 -7 -26 -10 -27 -47 -21 -69 11 -179
75 -256 149 -24 23 -43 37 -43 31 0 -5 4 -14 9 -19 12 -14 51 -122 51 -143 0
-9 -11 12 -24 48 -12 36 -30 80 -40 99 -10 18 -13 30 -7 27 6 -4 11 -4 11 0 0
9 -220 262 -256 294 -15 14 12 -20 60 -75 49 -55 94 -110 102 -121 20 -30 80
-210 88 -264 10 -71 -5 -85 -98 -85 -72 0 -77 2 -107 32 -30 29 -33 38 -39
118 -7 88 -25 131 -36 87 -4 -12 -9 -22 -13 -22 -3 1 -46 85 -96 187 -49 102
-96 193 -103 202 -8 10 -8 5 2 -15 24 -50 111 -273 136 -347 28 -88 22 -128
-30 -179 -59 -59 -75 -53 -103 40 -13 42 -43 157 -67 254 -25 97 -46 176 -48
174 -1 -2 20 -112 48 -245 27 -132 50 -252 50 -265 0 -31 -36 -76 -61 -76 -36
0 -77 29 -88 61 -6 18 -11 93 -12 168 -1 164 -5 160 -14 -12 -7 -124 -8 -130
-37 -162 -41 -47 -116 -95 -149 -95 -43 0 -60 34 -60 121 0 40 5 111 12 156
12 80 9 107 -11 87 -5 -5 -23 -49 -40 -99 -18 -49 -38 -100 -46 -113 -14 -21
-16 -22 -47 -6 -18 9 -57 37 -87 61 -37 30 -28 19 28 -34 82 -78 82 -78 82
-128 0 -28 -7 -59 -15 -70 -15 -18 -18 -16 -91 55 -124 123 -334 388 -334 421
0 17 30 22 48 8 9 -7 -15 21 -54 62 -75 77 -196 230 -189 237 2 3 23 -3 47
-13 133 -54 280 -76 358 -55 25 7 39 15 33 17 -22 8 -14 23 11 23 36 0 72 16
80 35 3 10 -1 42 -11 71 -9 30 -14 57 -10 60 3 3 44 1 91 -6 92 -14 216 -3
300 26 22 8 41 13 42 11 2 -2 -2 -19 -8 -39 -9 -30 -8 -42 8 -74 28 -57 71
-76 162 -71 60 3 86 11 157 46 100 49 186 127 216 196 17 38 23 44 35 34 8 -6
14 -7 14 -1 0 5 -7 15 -16 23 -8 7 -13 21 -10 32 3 12 -6 31 -25 52 -46 50
-121 63 -213 38 -15 -4 -13 3 13 41 36 52 75 135 86 181 6 28 3 27 -53 -29
l-60 -58 -81 16 c-97 20 -209 58 -271 93 -60 34 -45 20 75 -70 113 -84 185
-157 185 -186 0 -26 -37 -51 -77 -51 -17 0 -110 22 -205 50 l-173 49 -235 238
c-261 264 -318 306 -489 360 -83 26 -83 26 -56 40 15 8 25 16 23 18 -1 1 -30
-1 -63 -6 -184 -25 -356 -32 -527 -20 -95 7 -209 18 -252 25 -71 12 -83 17
-108 47 -53 63 -47 66 120 51 193 -17 616 -10 721 12 41 9 92 24 113 34 33 17
40 18 59 4 14 -10 24 -11 31 -4 14 14 1 32 -23 32 -10 0 -19 6 -19 14 0 8 -8
22 -17 33 -10 10 -15 14 -10 9 4 -6 7 -14 7 -20 0 -5 -6 -1 -14 9 -8 11 -12
24 -8 29 3 5 -3 6 -14 2 -10 -4 -15 -4 -11 0 10 11 -31 27 -233 95 -96 32
-170 58 -164 59 39 1 417 -134 503 -181 30 -16 56 -28 57 -26 2 1 4 51 5 110
1 59 3 107 4 107 1 0 19 -7 39 -15 74 -31 132 -38 224 -25 48 7 106 21 130 31
24 11 56 19 72 19 39 0 260 -45 339 -70 36 -11 67 -18 69 -15 2 2 -19 15 -47
30 -57 29 -318 201 -327 217 -3 5 13 0 36 -12 23 -12 44 -20 46 -18 2 3 -33
23 -78 46 -84 44 -158 97 -158 113 0 5 14 12 31 16 l32 6 -39 20 c-52 26 -165
111 -235 175 l-56 51 -1 -40 c-2 -47 -8 -59 -27 -59 -16 0 -284 191 -285 203
0 4 12 7 28 7 15 1 59 12 97 25 59 21 81 24 140 19 39 -4 145 -7 237 -8z
m-395 -142 c152 -115 152 -114 124 -107 -11 3 -21 9 -21 13 0 4 -12 11 -26 14
-14 4 -49 29 -78 55 -28 27 -73 65 -99 85 -27 20 -44 36 -38 36 6 0 68 -43
138 -96z m-573 -53 c34 -15 84 -31 110 -35 56 -9 56 -19 -3 -63 -33 -26 -53
-33 -89 -34 -26 -1 -37 -4 -24 -6 13 -3 32 -13 43 -24 10 -10 34 -25 53 -33
40 -17 69 -56 64 -87 -2 -13 -22 -38 -46 -56 -36 -27 -50 -32 -85 -29 -30 3
-34 2 -12 -3 l30 -6 -35 -15 c-19 -8 -50 -14 -70 -14 -65 0 -344 15 -460 24
-148 12 -592 12 -781 0 -219 -14 -401 -60 -514 -130 -71 -44 -87 -8 -31 69 90
122 256 252 421 330 100 48 325 122 325 107 0 -2 -19 -15 -42 -29 -98 -58
-199 -174 -184 -213 10 -26 73 -12 176 39 82 42 90 44 84 24 -6 -19 -5 -20 9
-9 10 9 17 10 22 2 12 -20 53 -10 86 21 42 39 150 94 229 116 l61 17 22 -26
c12 -14 32 -31 44 -37 21 -11 22 -10 17 18 -11 51 7 66 93 79 91 14 183 15
236 3 34 -8 37 -7 32 10 -6 18 0 19 75 19 67 0 91 -5 144 -29z m-559 -402
c196 -15 396 -46 528 -81 65 -17 116 -33 114 -35 -3 -2 -40 5 -83 17 -44 11
-92 18 -109 15 -25 -4 -27 -3 -10 5 15 8 6 9 -35 6 -33 -3 -45 -2 -30 3 18 5
-5 12 -90 24 -63 9 -151 22 -195 28 -44 7 -210 13 -370 15 -384 3 -440 7 -210
14 217 6 307 4 490 -11z m-417 -16 c-10 -2 -26 -2 -35 0 -10 3 -2 5 17 5 19 0
27 -2 18 -5z m285 0 c-7 -2 -21 -2 -30 0 -10 3 -4 5 12 5 17 0 24 -2 18 -5z
m-43 -24 c58 -5 132 -14 165 -19 l60 -9 -60 4 c-104 7 -288 26 -340 35 l-50 9
60 -5 c33 -2 107 -9 165 -15z m203 14 c-7 -2 -19 -2 -25 0 -7 3 -2 5 12 5 14
0 19 -2 13 -5z m70 -10 c-7 -2 -21 -2 -30 0 -10 3 -4 5 12 5 17 0 24 -2 18 -5z
m100 -10 c-7 -2 -19 -2 -25 0 -7 3 -2 5 12 5 14 0 19 -2 13 -5z m60 -10 c-7
-2 -21 -2 -30 0 -10 3 -4 5 12 5 17 0 24 -2 18 -5z m80 -10 c-7 -2 -19 -2 -25
0 -7 3 -2 5 12 5 14 0 19 -2 13 -5z m-94 -29 c46 -8 88 -14 94 -14 6 0 8 -2 5
-6 -6 -5 -173 19 -253 36 -35 8 -33 8 15 4 30 -3 93 -12 139 -20z m-292 10
c-3 -3 -12 -4 -19 -1 -8 3 -5 6 6 6 11 1 17 -2 13 -5z m143 -24 c4 -6 14 -8
23 -4 24 9 296 -41 497 -92 134 -34 311 -87 306 -91 -2 -2 -66 14 -142 36
-235 68 -627 151 -642 136 -3 -3 3 -5 13 -5 10 0 16 -2 13 -5 -3 -3 -50 6
-104 20 l-99 25 64 -5 c36 -3 68 -10 71 -15z m535 -67 c99 -25 187 -49 195
-54 12 -8 11 -9 -5 -5 -173 46 -279 73 -365 92 -58 13 -82 21 -55 18 28 -3
131 -26 230 -51z m-316 0 c41 -13 82 -29 90 -34 13 -9 12 -9 -4 -4 -11 4 -56
18 -100 32 -44 14 -91 29 -105 34 -54 19 46 -4 119 -28z m156 -53 c13 -5 14
-9 5 -9 -8 0 -24 4 -35 9 -13 5 -14 9 -5 9 8 0 24 -4 35 -9z m180 -39 c77 -16
132 -30 121 -30 -22 -1 -268 48 -275 54 -7 8 9 5 154 -24z m331 -12 c47 -17
83 -33 82 -35 -2 -2 -53 15 -113 37 -61 22 -98 37 -82 34 15 -3 66 -19 113
-36z m-787 -25 c9 -8 -65 -2 -84 6 -13 6 -2 7 30 3 28 -3 52 -7 54 -9z m649
-1 c-10 -2 -26 -2 -35 0 -10 3 -2 5 17 5 19 0 27 -2 18 -5z m186 -24 c48 -17
88 -35 91 -39 3 -4 -9 -13 -27 -19 -42 -15 -50 -13 -13 4 l30 13 -35 14 c-19
8 -59 23 -87 32 -29 10 -53 19 -53 22 0 7 6 5 94 -27z m-910 -39 c9 -58 -1
-47 -13 14 -5 26 -5 44 -1 39 4 -4 10 -28 14 -53z m221 50 c55 -6 56 -7 15 -8
-25 0 -70 3 -100 8 -47 6 -49 7 -15 8 22 0 67 -4 100 -8z m188 -17 c-24 -2
-62 -2 -85 0 -24 2 -5 4 42 4 47 0 66 -2 43 -4z m282 -3 c-27 -5 -93 -8 -145
-7 l-95 1 105 6 c58 3 123 6 145 7 37 0 36 0 -10 -7z m205 -70 c-14 -4 -34 -8
-45 -8 -16 0 -15 2 5 8 14 4 34 8 45 8 16 0 15 -2 -5 -8z m-812 -7 c-10 -2
-28 -2 -40 0 -13 2 -5 4 17 4 22 1 32 -1 23 -4z m150 -10 c-15 -2 -42 -2 -60
0 -18 2 -6 4 27 4 33 0 48 -2 33 -4z m527 -3 c-27 -5 -84 -8 -125 -7 l-75 1
85 6 c47 3 103 7 125 7 37 0 36 0 -10 -7z m-347 -7 c-26 -2 -71 -2 -100 0 -29
2 -8 3 47 3 55 0 79 -1 53 -3z m921 -1729 c-22 -7 -49 -20 -59 -29 -17 -16
-19 -14 -29 37 -10 47 -10 54 6 65 9 7 25 11 35 7 11 -3 18 0 18 7 0 6 16 -8
35 -32 l34 -44 -40 -11z m-239 9 l28 -44 -61 -109 c-34 -60 -63 -108 -64 -106
-2 1 -9 38 -17 82 -8 43 -18 94 -22 112 -6 30 -3 37 40 78 26 24 52 42 57 38
6 -3 24 -26 39 -51z m284 -19 c11 -4 16 -19 16 -45 0 -35 -8 -48 -67 -112 -36
-40 -70 -76 -75 -82 -9 -9 -3 131 8 182 2 13 20 31 42 42 40 22 52 24 76 15z
m65 -83 l11 -39 -92 -127 -93 -127 -11 58 -12 58 81 89 c62 68 80 95 80 117 0
40 20 23 36 -29z m1651 45 c0 -2 -8 -10 -17 -17 -16 -13 -17 -12 -4 4 13 16
21 21 21 13z m-1920 -103 c0 -7 -39 -67 -87 -135 l-88 -122 -3 57 c-3 52 0 62
27 92 16 19 49 70 73 115 l43 80 17 -38 c10 -20 18 -42 18 -49z m310 -59 l20
-66 -107 -129 c-117 -141 -121 -142 -122 -43 -1 48 3 56 90 177 50 70 93 127
95 127 2 0 12 -30 24 -66z m960 43 c0 -2 -10 -12 -22 -23 l-23 -19 19 23 c18
21 26 27 26 19z m-1241 -77 c10 -43 9 -45 -34 -95 -24 -27 -76 -84 -115 -125
l-70 -75 7 55 c5 49 17 70 96 183 97 136 98 137 116 57z m859 -28 c26 -26 64
-60 85 -76 34 -26 39 -27 69 -15 18 7 62 41 98 76 l67 63 37 -54 c20 -30 46
-62 56 -71 19 -17 19 -18 -10 -52 -24 -26 -30 -43 -30 -78 0 -37 6 -50 33 -78
73 -72 218 -77 298 -9 20 16 34 22 36 15 15 -44 92 -188 129 -240 41 -59 44
-69 44 -126 0 -102 -63 -467 -78 -452 -3 3 -29 83 -57 178 -77 253 -166 529
-171 525 -2 -2 53 -193 122 -424 165 -553 192 -661 162 -636 -7 5 -63 37 -124
71 -61 33 -160 92 -220 131 -109 71 -266 153 -316 165 -21 6 -30 17 -42 53
-36 114 -36 138 -5 258 50 189 139 698 125 712 -5 5 -8 -7 -27 -103 -15 -82
-36 -132 -72 -180 -24 -31 -25 -35 -7 -20 12 11 31 34 41 50 27 43 25 19 -15
-175 -68 -326 -147 -595 -227 -768 l-39 -84 -32 23 c-18 13 -63 52 -100 87
-65 62 -72 73 -223 373 -85 170 -155 305 -155 300 0 -29 175 -394 248 -518 18
-29 30 -53 27 -53 -7 0 -112 114 -170 184 -70 86 -172 232 -215 308 l-32 58
72 115 c40 63 74 115 75 115 7 0 -34 -102 -47 -118 -36 -45 88 70 162 151 102
110 140 158 140 179 0 9 -16 30 -36 48 -20 17 -34 34 -30 37 3 3 -6 14 -19 25
-23 18 -34 48 -17 48 8 0 45 -60 46 -74 1 -5 7 -11 15 -14 8 -3 11 0 7 7 -5 7
0 8 14 3 16 -6 49 6 133 50 62 31 116 57 120 58 5 0 29 -22 55 -48z m1675 -79
c88 -87 133 -148 262 -360 92 -152 92 -153 59 -118 -16 17 -46 51 -67 75 -34
40 51 -77 125 -170 27 -34 63 -109 56 -116 -2 -2 -78 64 -169 147 l-164 150
178 -173 c97 -96 177 -178 177 -184 0 -20 -40 -47 -69 -46 -34 1 -86 25 -118
55 -27 24 -26 24 -44 -30 l-14 -41 -45 51 c-25 29 -67 73 -95 99 l-50 46 -1
-121 c-1 -67 -9 -165 -18 -217 -32 -177 -105 -430 -125 -430 -23 0 -143 99
-355 292 -77 70 -142 125 -145 122 -7 -7 40 -51 302 -287 103 -93 187 -174
187 -180 0 -6 -6 -18 -14 -26 -7 -9 -48 -101 -90 -205 -82 -203 -101 -240
-118 -230 -14 9 -59 111 -88 197 -12 38 -24 66 -26 64 -6 -6 67 -232 76 -235
4 -2 6 -12 3 -22 -4 -15 -12 -19 -32 -15 -22 4 -21 3 5 -6 37 -13 61 -46 45
-62 -25 -25 0 -77 26 -55 17 13 12 19 66 -82 91 -169 213 -491 257 -678 7 -29
15 -51 17 -48 16 16 -70 308 -142 483 -25 59 -43 108 -42 109 1 2 36 -52 77
-119 58 -96 375 -534 438 -607 36 -41 -15 33 -178 260 -98 135 -200 281 -227
325 -28 44 -67 106 -87 138 -20 31 -35 57 -33 57 2 0 42 -46 88 -102 119 -146
265 -289 354 -348 43 -27 82 -50 87 -50 6 0 -17 18 -50 41 -131 87 -348 317
-526 557 -59 80 -67 95 -54 105 44 35 270 516 340 721 23 69 45 126 48 126 3
0 50 -36 104 -80 54 -44 100 -80 103 -80 15 0 -43 72 -90 110 -70 57 -178 122
-194 115 -7 -2 -13 -3 -13 -2 0 1 7 38 16 82 9 44 19 140 22 213 l7 133 77
-77 c71 -71 80 -85 104 -158 15 -45 58 -162 96 -261 l69 -180 -144 -142 -143
-142 43 -78 c95 -172 201 -471 229 -642 8 -52 22 -124 31 -160 20 -84 23 -378
4 -466 -21 -103 -11 -95 -99 -75 -465 104 -946 413 -1361 873 -63 70 -120 127
-127 127 -8 0 -30 -15 -51 -32 l-38 -33 38 43 c20 23 37 46 37 51 0 5 -29 39
-64 75 -35 36 -71 82 -80 101 -9 19 -21 35 -27 35 -5 0 -4 8 2 19 9 14 8 32
-5 82 l-17 64 -97 -95 c-54 -52 -162 -151 -240 -219 -78 -68 -142 -127 -142
-129 0 -3 8 2 18 10 9 8 85 71 167 140 83 69 181 158 219 197 38 40 70 70 71
69 2 -2 6 -20 10 -40 7 -37 6 -39 -101 -149 -113 -116 -393 -379 -403 -379 -3
0 -26 53 -50 118 -24 64 -74 181 -112 260 l-68 142 117 78 c193 129 182 124
232 109 l44 -13 -46 -27 c-69 -40 -314 -223 -258 -192 25 14 232 156 271 187
20 15 43 28 51 28 7 0 76 -20 153 -44 77 -25 141 -43 143 -41 6 5 -266 91
-363 115 -106 26 -265 50 -327 50 l-47 0 43 43 c55 56 76 116 76 223 0 73 -16
191 -25 182 -2 -2 1 -41 7 -88 26 -216 -54 -358 -202 -361 -49 -1 -52 -2 -25
-10 27 -8 41 -32 147 -246 128 -260 172 -362 213 -495 15 -49 30 -88 34 -88 4
0 49 43 100 95 52 52 95 95 97 95 2 0 4 -15 4 -34 0 -46 33 -84 97 -112 76
-34 118 -32 138 6 9 17 11 30 6 30 -11 0 -4 53 9 79 5 10 33 -11 105 -78 119
-112 294 -263 392 -340 40 -31 73 -64 73 -73 0 -26 -60 -89 -105 -109 -50 -23
-157 -25 -221 -3 -25 8 -48 14 -49 12 -2 -2 7 -34 21 -72 13 -37 21 -72 18
-78 -4 -6 -2 -13 4 -17 13 -8 -9 -98 -33 -135 -36 -54 -157 -85 -265 -67 -30
5 -56 8 -58 6 -6 -6 70 -85 81 -85 5 0 2 10 -9 23 l-19 22 22 -19 c13 -10 20
-22 18 -27 -6 -8 130 -105 256 -182 76 -47 96 -56 84 -37 -3 5 0 7 9 4 8 -3
32 4 55 16 23 11 41 18 41 16 0 -10 -76 -51 -89 -48 -7 2 -10 -1 -7 -6 3 -5
-49 -47 -117 -93 -67 -45 -163 -111 -213 -146 l-91 -62 -42 32 c-66 50 -167
224 -190 327 l-9 39 52 25 c122 60 127 206 11 335 -19 21 -35 41 -35 43 0 3
26 -1 58 -8 76 -18 213 -18 257 0 39 17 66 61 64 108 -1 30 -2 30 -8 -9 -14
-82 -67 -109 -195 -100 -45 4 -114 15 -153 27 -40 11 -75 20 -79 20 -3 0 19
-28 50 -62 101 -111 131 -212 86 -286 -23 -37 -88 -71 -137 -72 -35 0 -162 73
-219 127 l-31 29 -6 -69 c-7 -80 -29 -123 -77 -152 -70 -40 -219 -16 -372 61
-26 13 -49 24 -52 24 -3 0 7 -28 21 -62 18 -44 26 -83 27 -128 1 -59 -1 -65
-21 -68 -37 -5 -105 38 -185 119 -42 43 -92 85 -110 94 -27 13 -22 6 29 -43
35 -33 70 -76 79 -97 20 -48 32 -245 15 -245 -17 0 -151 102 -151 116 0 6 -12
9 -28 6 -71 -10 -226 83 -336 204 -75 81 -80 90 -84 138 -4 48 13 194 24 205
2 2 17 -7 32 -22 45 -43 109 -67 183 -67 76 0 92 8 49 27 -31 12 -59 61 -74
125 -6 26 -4 26 57 -21 118 -89 260 -131 442 -131 64 0 129 24 155 56 13 16
12 16 -15 -2 -39 -27 -90 -44 -131 -44 -30 0 -34 3 -34 28 0 36 -41 121 -73
150 -24 22 -28 23 -62 11 l-37 -14 -38 44 c-36 41 -39 43 -79 36 -38 -6 -41
-5 -41 17 0 12 5 43 11 67 5 24 8 46 5 48 -13 14 -86 -25 -124 -66 l-42 -46
-1 40 c0 40 -1 39 -24 -26 -12 -36 -28 -75 -34 -87 -28 -53 -141 -89 -246 -77
-55 6 -64 9 -69 29 -7 27 -38 36 -121 36 -51 0 -54 2 -90 48 -21 26 -52 59
-69 74 l-31 27 95 -6 c172 -10 302 43 451 184 75 72 178 204 218 281 21 40 4
23 -29 -29 l-33 -50 -30 28 c-29 27 -30 27 -14 3 29 -42 29 -48 6 -79 l-23
-31 -40 37 c-22 21 -32 27 -21 13 11 -14 28 -32 38 -41 18 -15 15 -19 -60 -95
-43 -44 -107 -98 -143 -122 -61 -40 -99 -54 -85 -32 8 13 3 12 -70 -5 -33 -8
-92 -15 -131 -15 -61 0 -81 5 -136 33 -35 17 -101 59 -145 92 -70 52 -82 65
-85 94 -3 35 -15 46 -60 55 -34 8 -109 65 -125 96 -8 17 -9 29 -2 43 8 14 7
23 -5 36 -38 42 -11 24 46 -30 76 -74 216 -168 285 -190 51 -17 52 -17 150 11
239 70 425 151 401 176 -5 4 -16 0 -26 -9 -10 -9 -44 -28 -76 -43 -55 -25 -65
-26 -160 -21 -73 4 -115 11 -151 27 -27 12 -88 35 -134 51 -102 35 -121 50
-121 98 0 61 84 211 118 211 5 0 20 10 34 23 13 12 49 39 79 60 52 35 60 37
130 37 166 0 432 -100 751 -282 56 -32 57 -32 77 -14 30 27 26 38 -24 69 -68
43 -181 183 -239 295 -19 36 -16 38 22 18 15 -7 72 -30 127 -51 55 -20 159
-65 230 -100 194 -94 483 -196 518 -181 7 2 4 5 -5 5 -24 1 -194 56 -307 99
-92 35 -94 36 -117 86 -23 50 -30 76 -18 76 3 0 37 -14 77 -31 164 -70 317
-117 408 -124 61 -5 59 -4 -41 20 -124 29 -198 53 -342 107 l-108 41 0 61 c0
38 8 77 19 103 20 44 80 94 136 114 24 9 39 25 59 66 36 73 33 79 -7 13 -27
-44 -38 -55 -58 -53 -108 10 -159 17 -169 23 -9 6 -7 28 9 93 11 47 21 114 22
148 1 53 15 101 79 279 75 207 144 415 152 454 2 13 27 -19 80 -100 89 -138
194 -270 329 -416 112 -120 130 -150 137 -233 l4 -61 -47 -42 c-26 -23 -45
-42 -41 -42 3 0 27 19 51 41 41 38 45 46 45 89 0 26 -7 66 -15 89 l-15 42 61
-50 c33 -28 65 -51 70 -51 5 0 15 11 21 25 6 14 16 23 22 21 92 -39 357 -107
410 -105 11 0 -19 9 -69 19 -156 32 -335 93 -335 113 1 34 16 34 116 1 193
-65 415 -95 524 -72 31 7 47 1 147 -56 62 -35 115 -61 118 -58 3 3 5 17 5 31
0 28 179 681 190 694 4 4 35 0 69 -9 l62 -17 35 34 c19 18 49 55 67 82 27 40
36 47 57 42 292 -63 333 -40 189 108 l-70 72 65 -85 c36 -46 66 -91 66 -99 0
-11 -14 -13 -77 -8 -102 9 -179 30 -176 48 1 8 13 43 28 78 15 35 32 89 38
121 7 31 18 64 26 73 9 11 11 29 7 54 -4 21 -11 70 -16 108 -5 39 -12 87 -16
108 -6 37 -5 38 19 32 14 -4 34 -2 44 4 36 21 57 10 146 -76z m-2219 5 c6 -53
5 -78 -4 -73 -4 2 -51 -47 -104 -109 -130 -153 -126 -151 -126 -85 0 54 0 54
108 181 59 70 110 127 114 128 4 0 9 -19 12 -42z m-293 2 c5 0 10 6 10 13 1 6
5 -8 9 -33 l8 -45 -107 -148 c-135 -188 -135 -187 -128 -187 3 0 57 70 119
156 122 169 125 170 127 66 1 -42 -5 -50 -124 -193 -69 -82 -124 -149 -121
-149 3 0 59 63 125 139 123 144 131 148 131 74 0 -31 -21 -59 -190 -253 -159
-183 -289 -310 -316 -310 -3 0 6 14 21 32 38 45 93 158 132 272 44 131 96 335
89 359 -3 13 24 50 97 129 69 75 103 105 105 94 2 -9 8 -16 13 -16z m307 -174
c-4 -70 -6 -74 -92 -210 -67 -104 -90 -148 -92 -179 -2 -22 -7 -43 -10 -46 -4
-3 -5 8 -2 25 l4 31 -44 -34 c-24 -18 -51 -33 -60 -33 -9 0 -47 -11 -84 -24
-38 -12 -68 -21 -68 -19 0 6 114 156 183 241 32 40 60 79 61 87 1 8 6 18 11
22 4 5 4 1 0 -7 -8 -13 -7 -13 8 -1 19 15 23 36 5 25 -16 -10 51 83 109 153
60 72 76 64 71 -31z m2019 -38 c-3 -7 -5 -2 -5 12 0 14 2 19 5 13 2 -7 2 -19
0 -25z m-516 -354 c18 -19 55 -48 80 -65 l47 -30 -68 -207 c-37 -114 -78 -252
-90 -307 -34 -159 -33 -153 -38 -130 -2 11 -17 69 -33 129 l-30 109 25 111
c31 138 56 307 56 375 0 28 4 51 8 51 4 0 24 -16 43 -36z m-912 -1460 c-140
-140 -257 -254 -261 -254 -29 0 16 51 192 214 109 103 225 216 257 252 31 37
59 61 61 54 3 -7 -110 -127 -249 -266z m261 182 c0 -7 9 -21 20 -31 20 -19 20
-19 -12 -52 -17 -18 -34 -33 -37 -33 -4 0 -16 16 -28 35 l-23 34 31 36 c30 34
49 38 49 11z m1620 -71 c0 -5 -5 -3 -10 5 -5 8 -10 20 -10 25 0 6 5 3 10 -5 5
-8 10 -19 10 -25z m-606 -2 c14 6 15 3 6 -13 -6 -11 -13 -20 -17 -20 -10 0
-32 34 -33 49 0 11 4 10 14 -4 8 -11 19 -16 30 -12z m-2291 -35 c22 -11 37
-22 34 -24 -3 -3 -31 9 -63 26 -63 32 -36 31 29 -2z m1376 -15 l40 -47 -19
-26 c-26 -36 -47 -53 -59 -46 -5 3 -25 28 -44 55 l-35 48 31 32 c18 17 35 31
39 31 3 0 24 -21 47 -47z m107 -128 l27 -36 -38 -39 -37 -38 -29 33 c-16 18
-29 36 -29 41 0 10 61 74 71 74 5 0 20 -16 35 -35z m99 -92 c55 -63 44 -63
-14 0 -34 37 -47 57 -39 57 2 0 26 -26 53 -57z m2593 -70 l57 -118 -2 -100
c-3 -198 -69 -553 -134 -713 -32 -82 -77 -158 -109 -187 -11 -10 -20 -23 -20
-29 1 -6 16 6 34 27 114 128 195 420 242 862 l7 70 14 -45 c8 -25 17 -86 20
-137 4 -55 10 -90 16 -86 12 7 1 -196 -19 -333 -22 -152 -39 -207 -104 -339
-62 -125 -125 -208 -184 -243 l-35 -21 -20 32 c-41 69 -76 228 -126 576 -9 63
-21 125 -26 138 -12 33 -11 108 5 228 l13 100 99 100 c103 105 163 193 191
283 9 28 18 52 20 52 2 0 29 -53 61 -117z m-2624 66 c14 -17 26 -34 26 -37 0
-4 -14 -22 -30 -40 l-30 -32 -34 37 -35 38 32 33 c17 17 34 32 38 32 4 0 19
-14 33 -31z m104 -102 l42 -43 -38 -37 -38 -37 -43 44 c-29 29 -41 49 -36 58
15 25 48 58 60 58 6 0 30 -19 53 -43z m82 -57 c0 -5 -5 -10 -12 -10 -7 0 -30
-17 -53 -37 -38 -36 -38 -36 5 10 44 46 60 57 60 37z m48 -73 c36 -38 35 -53
-6 -90 -19 -17 -21 -16 -67 26 l-49 44 29 36 c33 40 40 39 93 -16z m-3388 5
c0 -17 130 -161 187 -207 32 -26 60 -52 62 -58 2 -6 -11 1 -29 17 -29 24 -40
27 -80 23 -25 -2 -52 -7 -60 -11 -12 -5 -23 16 -50 95 -19 55 -38 103 -42 105
-12 7 -10 44 2 44 6 0 10 -4 10 -8z m3519 -121 c24 -18 24 -20 8 -45 -10 -14
-22 -26 -27 -26 -6 0 -33 17 -60 37 l-50 37 27 28 26 27 26 -19 c14 -11 37
-28 50 -39z m123 -98 c38 -25 68 -49 68 -52 0 -3 -9 -17 -19 -30 l-18 -24 -77
47 -76 48 17 29 c10 16 22 29 28 29 5 0 40 -21 77 -47z m180 -113 c37 -23 68
-44 68 -49 0 -4 -6 -15 -13 -25 -13 -17 -17 -16 -88 19 -41 21 -76 39 -78 41
-8 7 19 54 31 54 6 0 42 -18 80 -40z m145 -95 c47 -28 49 -33 30 -59 -13 -17
-15 -17 -58 4 -24 12 -45 24 -47 25 -4 4 20 55 26 55 3 0 25 -11 49 -25z m-87
-17 c0 -4 -6 -8 -14 -8 -8 0 -17 4 -20 8 -2 4 4 8 15 8 10 0 19 -4 19 -8z m91
-72 c63 -29 160 -71 217 -91 56 -21 101 -40 99 -41 -6 -7 -181 48 -282 88
-100 39 -140 61 -94 52 15 -3 6 5 -21 20 -73 41 -41 30 81 -28z m514 -178
l100 -23 190 -136 c104 -75 189 -142 187 -149 -2 -7 3 -10 11 -7 9 3 101 -59
226 -153 316 -237 431 -337 431 -375 0 -37 -50 -122 -96 -165 -57 -52 -149
-96 -245 -116 -110 -24 -359 -14 -499 19 -262 62 -635 216 -965 399 -147 82
-459 268 -491 293 l-25 20 77 60 c100 78 89 72 180 90 43 9 120 30 171 46 l92
30 41 -27 c22 -15 39 -29 37 -31 -2 -2 -42 -16 -88 -32 -46 -16 -79 -30 -72
-30 6 -1 49 12 94 28 l82 29 66 -40 c104 -65 106 -59 -34 -107 -69 -24 -124
-45 -122 -48 2 -2 62 17 133 42 l128 45 101 -62 c350 -216 725 -412 893 -468
107 -36 193 -43 217 -20 14 14 8 18 -57 39 -137 44 -1064 532 -1051 553 3 5
-1 8 -8 6 -18 -3 -179 84 -173 94 3 4 -2 8 -11 8 -17 0 -99 39 -93 45 1 2 66
26 143 54 77 28 174 64 215 80 41 16 84 30 95 30 11 1 65 -9 120 -21z m805
-43 c-34 -89 -69 -139 -115 -162 -27 -14 -25 -11 17 34 25 28 58 73 72 102 28
53 42 69 26 26z m-4530 -74 c79 -66 163 -122 205 -137 18 -7 19 -6 6 9 -12 15
-12 17 0 11 8 -3 32 -28 54 -55 76 -92 204 -175 311 -202 44 -11 50 -16 62
-52 14 -39 20 -301 8 -313 -12 -11 -181 53 -237 90 -76 51 -160 144 -196 218
l-28 59 -43 -42 -43 -42 -29 32 c-18 20 -35 30 -45 27 -8 -3 -15 -1 -15 5 0 6
7 11 15 11 42 0 43 78 1 164 -13 28 -36 81 -52 119 -15 37 -42 90 -60 117 -48
73 -17 66 86 -19z m2860 27 c0 -38 -127 -156 -293 -275 l-33 -23 -62 36 c-35
21 -59 41 -55 44 4 4 57 40 117 80 171 114 326 179 326 138z m321 -82 l43 -25
-28 -10 c-35 -14 -32 -15 -69 11 -18 13 -34 24 -37 26 -6 4 22 22 36 22 7 0
31 -11 55 -24z m148 -86 c46 -28 85 -50 87 -50 1 0 53 -29 116 -63 459 -257
850 -455 993 -502 19 -7 19 -7 -4 -16 -96 -37 -442 117 -965 429 -201 120
-208 125 -185 138 26 14 16 17 -16 5 -14 -6 -31 -1 -57 15 -131 82 -124 77
-103 85 36 14 49 10 134 -41z m-3339 -31 c0 -32 -19 -69 -35 -69 -12 0 -15 10
-13 43 1 23 -2 53 -6 66 l-8 23 31 -23 c17 -12 31 -31 31 -40z m5214 16 c9 -9
20 -33 26 -54 9 -35 5 -50 -61 -207 -39 -93 -87 -209 -106 -259 -36 -94 -60
-127 -105 -151 -37 -19 -58 2 -58 61 0 35 -6 52 -31 79 l-30 35 68 136 c81
163 185 320 232 352 40 27 45 28 65 8z m-2694 -115 c8 -4 13 -11 10 -13 -12
-11 -330 -237 -382 -271 l-57 -38 -61 48 c-33 26 -57 51 -53 55 4 4 102 70
218 147 l209 140 51 -29 c27 -16 57 -34 65 -39z m-2804 -7 c38 -19 53 -33 60
-57 14 -49 80 -77 171 -74 40 1 76 -2 80 -6 13 -13 7 -169 -6 -195 -7 -12 -10
-25 -7 -28 5 -5 15 14 31 62 4 11 9 15 12 8 6 -16 -37 -98 -45 -87 -4 5 -28
20 -54 33 -112 56 -255 203 -322 331 -20 37 -36 71 -36 75 0 4 15 -3 33 -15
17 -11 55 -33 83 -47z m2172 -190 c18 -13 32 -19 32 -12 0 8 4 8 15 -1 8 -7
12 -17 8 -23 -3 -6 -1 -7 5 -3 14 8 134 -83 126 -96 -7 -10 -22 0 -76 51 -51
47 -49 25 2 -24 22 -21 40 -42 40 -45 0 -3 -13 -13 -29 -23 -29 -17 -29 -17
-83 25 -29 23 -58 47 -65 53 -6 5 -43 35 -82 65 -66 52 -70 57 -71 96 0 22 3
43 6 47 6 5 69 -35 172 -110z m-609 -85 l-4 -112 45 -13 c43 -13 93 -10 119 6
10 7 10 12 0 29 -9 14 -10 25 -4 31 7 7 36 -9 84 -44 57 -41 78 -52 88 -43 14
11 13 12 96 -56 l49 -39 -34 -15 c-18 -7 -51 -20 -73 -28 -39 -13 -39 -13 -5
-7 19 3 55 14 81 23 l45 18 100 -77 c380 -293 991 -726 1119 -792 55 -28 129
-69 165 -90 36 -21 97 -48 135 -60 39 -12 92 -33 118 -46 55 -28 280 -85 424
-109 118 -19 317 -14 408 10 97 26 215 89 265 142 l45 48 -50 -43 c-64 -55
-85 -67 -85 -47 0 13 -6 13 -43 -3 -23 -10 -87 -26 -141 -36 -121 -22 -292
-16 -440 16 -104 22 -379 115 -458 155 -25 13 -77 32 -115 43 -37 10 -104 32
-148 49 -44 16 -105 35 -135 42 -59 14 -72 22 -405 259 -217 154 -735 539
-735 546 0 3 23 16 51 30 33 17 55 23 62 17 7 -5 50 -40 96 -77 47 -37 127
-98 178 -136 63 -47 93 -76 93 -89 0 -15 7 -20 29 -20 20 0 61 -21 123 -63 51
-35 183 -124 293 -199 283 -192 364 -230 595 -283 63 -14 163 -41 222 -60 205
-66 793 -140 923 -116 82 15 101 63 30 77 -52 9 -51 21 1 29 26 3 78 15 118
25 39 11 74 16 77 12 11 -13 111 -398 139 -536 21 -104 29 -41 24 187 -3 151
-2 217 6 212 5 -3 10 -11 10 -17 0 -22 45 -71 77 -84 63 -27 105 -6 215 106
70 71 99 95 107 87 26 -26 4 -88 -66 -186 -26 -36 -47 -69 -46 -73 3 -7 -31
-37 -77 -71 l-25 -18 25 12 c14 6 54 40 90 75 97 94 214 158 234 126 2 -4 -22
-63 -53 -132 -179 -388 -248 -486 -390 -554 -61 -29 -74 -31 -171 -31 -100 0
-109 2 -180 36 -135 65 -307 225 -408 381 -60 92 -63 96 -36 39 31 -65 42
-153 24 -205 -39 -120 -197 -191 -447 -203 -149 -7 -196 1 -408 72 -329 109
-973 401 -1173 531 -85 55 -168 100 -212 115 -24 9 24 6 125 -6 l40 -5 -35 10
c-58 15 -230 39 -303 42 -39 1 -76 8 -85 16 -15 11 -14 12 5 3 49 -24 32 -8
-51 49 -48 32 -128 91 -177 131 -50 39 -97 72 -105 73 -7 1 -17 6 -21 11 -5 4
-1 4 7 0 13 -8 13 -7 1 8 -14 18 -36 24 -26 7 11 -18 -1 -11 -21 12 -19 22
-19 23 1 9 11 -7 5 0 -12 16 l-33 29 0 208 0 208 133 -119 c363 -326 670 -521
973 -621 62 -20 141 -59 250 -124 166 -98 385 -218 400 -218 5 0 -58 38 -141
83 -138 77 -305 177 -348 209 -15 11 -6 13 60 10 120 -6 156 3 177 41 l18 32
-25 -30 c-25 -30 -27 -30 -119 -29 -349 2 -807 259 -1320 740 -84 78 -100 114
-52 114 19 0 49 -21 108 -77 160 -150 317 -272 501 -388 118 -75 389 -207 489
-240 118 -38 116 -29 -4 14 -295 106 -611 305 -959 605 l-94 81 90 5 c83 5
123 18 123 40 0 10 -76 27 -154 35 -33 3 -79 14 -103 25 -38 17 -43 22 -43 52
1 104 40 278 63 278 5 0 7 -50 6 -112z m465 -55 c28 -27 68 -63 89 -81 21 -18
36 -36 33 -40 -2 -4 -24 -18 -49 -31 l-45 -24 -43 33 c-24 18 -56 44 -70 57
l-25 23 25 55 c14 30 28 55 30 55 2 0 27 -21 55 -47z m-1057 -15 c-2 -13 -4
-5 -4 17 -1 22 1 32 4 23 2 -10 2 -28 0 -40z m363 -133 c9 -10 9 -15 1 -15 -6
0 -11 4 -11 10 0 5 -7 7 -15 4 -8 -4 -15 -1 -15 5 0 16 25 13 40 -4z m81 -297
c-10 -109 -20 -200 -23 -203 -3 -3 -24 15 -47 40 -52 57 -52 78 1 182 43 86
52 141 35 208 l-8 30 29 -30 30 -30 -17 -197z m109 -101 l0 -208 -27 20 c-16
11 -42 32 -60 48 l-31 28 18 195 c9 107 18 197 19 200 0 2 19 -14 41 -35 l40
-39 0 -209z m-370 -53 c329 -271 560 -457 560 -450 0 2 -40 38 -90 80 -49 43
-90 81 -90 86 0 10 313 -255 318 -269 7 -21 -107 -28 -169 -11 -20 6 -56 24
-80 40 -24 16 -50 30 -58 30 -43 0 -418 335 -534 478 -77 95 -217 309 -187
286 8 -6 157 -128 330 -270z m140 70 c0 -8 -5 -12 -10 -9 -6 4 -8 11 -5 16 9
14 15 11 15 -7z m-135 -274 c38 -38 67 -70 64 -70 -2 0 -36 32 -74 70 -38 39
-67 70 -64 70 2 0 36 -31 74 -70z m365 -67 c-1 -11 -40 37 -40 49 0 6 9 -1 20
-15 11 -14 20 -29 20 -34z m-254 -35 l29 -33 -32 29 c-31 28 -38 36 -30 36 2
0 16 -15 33 -32z m477 -47 c7 -8 -10 0 -36 19 -26 19 -53 41 -60 49 -7 8 10 0
36 -19 26 -19 53 -41 60 -49z m-58 -231 c19 -8 19 -9 -2 -9 -12 -1 -25 4 -28
9 -7 12 2 12 30 0z m497 -551 c307 -223 610 -413 739 -463 100 -38 114 -40
132 -12 l16 24 138 -60 c131 -57 475 -178 506 -178 21 0 99 -88 95 -108 -3
-15 -18 -17 -118 -16 -344 5 -976 216 -1345 449 -168 106 -565 420 -565 446 0
14 41 11 93 -7 46 -16 48 -15 90 10 23 14 47 25 54 26 7 0 81 -50 165 -111z
m1065 32 c177 -75 390 -151 508 -181 90 -23 90 -24 171 -104 55 -55 89 -100
109 -141 32 -68 43 -164 26 -217 -14 -43 -42 -50 -153 -38 -242 27 -590 167
-1027 413 -169 95 -181 106 -181 169 0 32 55 98 82 98 7 0 72 -43 143 -96 157
-116 271 -184 379 -229 87 -35 219 -77 301 -95 28 -6 58 -13 69 -16 41 -13 1
17 -82 62 -91 50 -170 100 -187 119 -5 7 -94 68 -197 136 -104 68 -188 126
-188 130 0 3 11 11 25 17 14 7 28 19 32 27 3 9 11 14 17 11 6 -2 75 -31 153
-65z m-2037 -419 c43 -44 -99 74 -250 208 -80 71 -167 152 -195 181 -27 28 56
-42 185 -156 129 -114 246 -219 260 -233z m3150 263 c-13 -14 -19 -25 -13 -25
5 0 20 11 33 25 20 21 29 24 64 18 23 -3 43 -8 45 -10 3 -2 -22 -30 -54 -63
-78 -79 -61 -77 21 1 l64 62 55 -21 c92 -36 219 -130 257 -191 20 -31 23 -49
23 -143 0 -58 -3 -109 -7 -113 -18 -19 -343 175 -531 318 -49 37 -90 67 -92
67 -2 0 9 -26 24 -57 36 -73 97 -263 147 -457 21 -82 39 -145 41 -139 9 27
-125 513 -160 578 -9 18 -9 19 11 5 153 -109 350 -233 445 -278 116 -57 117
-57 111 -87 -13 -65 -58 -147 -101 -185 -53 -46 -111 -67 -210 -76 -63 -6 -73
-5 -79 10 -5 13 -9 15 -15 5 -17 -27 -244 39 -435 127 -73 34 -77 37 -52 44
14 4 39 15 55 23 15 9 35 18 44 20 18 6 39 76 39 131 0 48 -31 143 -65 196
-15 25 -55 71 -87 103 l-59 57 78 0 c108 0 257 24 334 54 84 32 99 33 69 1z
m1174 -1589 c14 -24 42 -58 62 -76 32 -28 43 -31 76 -27 48 6 71 26 109 92 16
28 29 48 29 45 0 -3 -16 -82 -36 -175 -19 -94 -69 -354 -110 -580 -82 -447
-95 -509 -125 -572 -36 -74 -75 -69 -116 15 l-28 57 1 215 c1 125 8 282 18
375 23 219 85 675 91 675 2 0 15 -20 29 -44z"/>
<path d="M3400 11635 c14 -8 30 -14 35 -14 6 0 -1 6 -15 14 -14 8 -29 14 -35
14 -5 0 1 -6 15 -14z"/>
<path d="M3460 11610 c8 -5 20 -10 25 -10 6 0 3 5 -5 10 -8 5 -19 10 -25 10
-5 0 -3 -5 5 -10z"/>
<path d="M3720 11407 c9 -10 173 -78 177 -74 2 2 -27 18 -64 34 -71 32 -122
50 -113 40z"/>
<path d="M3926 11335 c-9 -35 0 -48 25 -34 24 12 22 52 -2 57 -11 2 -19 -6
-23 -23z"/>
<path d="M3470 11174 c-13 -32 -13 -31 5 -38 23 -9 47 22 35 45 -15 26 -29 24
-40 -7z"/>
<path d="M3750 11178 c0 -3 46 -47 103 -98 61 -56 80 -70 47 -36 -54 56 -150
142 -150 134z"/>
<path d="M4135 10929 c11 -13 45 -51 75 -84 l56 -60 1 45 c0 36 -1 39 -6 15
l-6 -29 -39 47 c-22 26 -53 58 -70 69 l-31 22 20 -25z"/>
<path d="M3646 10923 c5 -5 12 -12 16 -18 4 -6 8 -2 8 8 0 9 -7 17 -17 17 -9
0 -12 -3 -7 -7z"/>
<path d="M3435 10880 c-13 -6 -15 -9 -5 -9 8 0 22 4 30 9 18 12 2 12 -25 0z"/>
<path d="M3640 10875 c-24 -13 -24 -14 -4 -15 12 0 27 7 34 15 16 19 3 19 -30
0z"/>
<path d="M3290 10849 c-47 -10 -121 -22 -165 -27 -47 -6 -64 -10 -41 -11 50
-1 231 25 287 43 61 19 21 17 -81 -5z"/>
<path d="M3770 10845 c0 -5 52 -28 91 -40 13 -4 22 -5 19 -2 -8 8 -110 47
-110 42z"/>
<path d="M3900 10790 c8 -5 20 -10 25 -10 6 0 3 5 -5 10 -8 5 -19 10 -25 10
-5 0 -3 -5 5 -10z"/>
<path d="M3980 10760 c8 -5 20 -10 25 -10 6 0 3 5 -5 10 -8 5 -19 10 -25 10
-5 0 -3 -5 5 -10z"/>
<path d="M4253 10715 c0 -22 2 -30 4 -17 2 12 2 30 0 40 -3 9 -5 -1 -4 -23z"/>
<path d="M4231 10594 c-7 -44 -24 -113 -37 -154 -13 -41 -21 -76 -19 -78 12
-12 82 272 73 299 -2 6 -10 -24 -17 -67z"/>
<path d="M4280 10096 c0 -2 8 -10 18 -17 15 -13 16 -12 3 4 -13 16 -21 21 -21
13z"/>
<path d="M4167 9854 c-9 -10 12 -34 30 -34 19 0 12 34 -8 38 -8 1 -18 0 -22
-4z"/>
<path d="M3227 9604 c-18 -19 -5 -34 29 -34 28 0 35 3 32 18 -3 17 -48 29 -61
16z"/>
<path d="M1970 11851 c0 -34 18 -51 56 -54 38 -3 42 22 10 56 -34 37 -66 36
-66 -2z"/>
<path d="M1958 11683 c7 -3 16 -2 19 1 4 3 -2 6 -13 5 -11 0 -14 -3 -6 -6z"/>
<path d="M3390 9108 c16 -15 28 -20 33 -13 5 5 6 -8 2 -30 -5 -31 -21 -55 -68
-105 l-62 -65 62 59 c34 33 64 58 66 55 3 -2 24 -107 47 -234 48 -260 98 -496
107 -505 8 -7 -3 54 -48 284 -22 110 -37 201 -34 204 3 3 5 0 5 -7 0 -26 53
-123 76 -138 22 -14 26 -14 48 1 28 18 57 88 80 196 16 75 37 262 31 269 -5 4
-9 -17 -34 -177 -34 -214 -72 -304 -118 -277 -51 30 -145 301 -147 424 -1 53
-2 55 -36 69 l-35 14 25 -24z"/>
<path d="M4273 8763 c2 -10 48 -175 101 -368 101 -364 120 -428 110 -365 -21
124 -196 750 -210 750 -4 0 -4 -8 -1 -17z"/>
<path d="M4491 7974 c0 -11 3 -14 6 -6 3 7 2 16 -1 19 -3 4 -6 -2 -5 -13z"/>
<path d="M4501 7934 c0 -11 3 -14 6 -6 3 7 2 16 -1 19 -3 4 -6 -2 -5 -13z"/>
<path d="M5272 9090 c20 -17 39 -40 41 -53 3 -16 5 -13 6 11 1 26 -5 36 -31
52 -49 30 -58 24 -16 -10z"/>
<path d="M5550 8796 c0 -2 8 -10 18 -17 15 -13 16 -12 3 4 -13 16 -21 21 -21
13z"/>
<path d="M5074 8370 c5 -36 45 -239 55 -280 l9 -35 1 31 c1 43 -25 176 -49
249 -11 33 -18 49 -16 35z"/>
<path d="M2940 8116 c58 -61 149 -127 230 -165 35 -17 65 -29 66 -28 4 3 -15
207 -21 227 -2 8 -3 -33 -2 -92 2 -60 1 -108 -1 -108 -26 0 -199 112 -277 179
-40 35 -40 35 5 -13z"/>
<path d="M2999 8008 c-6 -13 -22 -38 -36 -55 -24 -33 -24 -33 -56 -17 -18 9
-48 28 -67 42 l-35 25 35 -36 c19 -20 52 -43 72 -51 36 -16 37 -16 58 14 22
31 53 100 45 100 -2 0 -10 -10 -16 -22z"/>
<path d="M3062 7850 c-54 -114 -63 -141 -36 -102 20 29 96 203 91 208 -2 3
-27 -45 -55 -106z"/>
<path d="M3590 7765 c0 -8 45 -26 359 -149 150 -59 275 -105 277 -103 2 2 -29
16 -68 32 -40 16 -181 73 -312 127 -234 96 -256 104 -256 93z"/>
<path d="M3563 7426 c-160 -113 -211 -152 -173 -131 44 24 300 198 330 224 72
63 9 25 -157 -93z"/>
<path d="M3844 7505 c-7 -18 -170 -151 -294 -240 -52 -37 -99 -72 -105 -78
-43 -42 252 162 328 228 47 40 98 105 82 105 -3 0 -8 -7 -11 -15z"/>
<path d="M4250 7500 c8 -5 20 -10 25 -10 6 0 3 5 -5 10 -8 5 -19 10 -25 10 -5
0 -3 -5 5 -10z"/>
<path d="M4300 7480 c8 -5 20 -10 25 -10 6 0 3 5 -5 10 -8 5 -19 10 -25 10 -5
0 -3 -5 5 -10z"/>
<path d="M2395 7207 c54 -73 245 -192 368 -229 40 -12 40 -11 22 -75 -3 -10 2
-2 11 17 9 19 17 36 18 38 6 6 66 -21 66 -29 0 -6 -7 -24 -16 -41 -9 -16 -11
-28 -6 -24 5 3 15 19 22 36 7 16 18 30 24 30 7 0 54 -9 106 -21 113 -24 282
-49 330 -48 19 1 -17 9 -80 19 -176 27 -273 48 -415 92 -209 64 -316 120 -424
222 -49 46 -51 47 -26 13z"/>
<path d="M4848 7233 c7 -3 16 -2 19 1 4 3 -2 6 -13 5 -11 0 -14 -3 -6 -6z"/>
<path d="M4888 7223 c7 -3 16 -2 19 1 4 3 -2 6 -13 5 -11 0 -14 -3 -6 -6z"/>
<path d="M2317 6955 c15 -20 39 -43 53 -52 14 -8 3 8 -25 36 -58 60 -67 65
-28 16z"/>
<path d="M3228 6983 c6 -2 18 -2 25 0 6 3 1 5 -13 5 -14 0 -19 -2 -12 -5z"/>
<path d="M2623 6923 c-7 -2 -13 -16 -13 -30 0 -20 4 -24 23 -21 16 2 23 11 25
31 3 27 -6 32 -35 20z"/>
<path d="M2260 6884 c0 -6 16 -26 36 -45 22 -20 32 -26 26 -14 -13 25 -62 72
-62 59z"/>
<path d="M2717 6819 c-64 -3 -120 -9 -123 -12 -11 -11 48 -30 106 -34 36 -3
67 1 92 11 33 14 56 34 47 39 -2 1 -57 0 -122 -4z"/>
<path d="M3960 6665 c-22 -44 -45 -76 -62 -85 -25 -13 -29 -13 -55 6 -15 12
-40 45 -55 74 -16 29 -28 47 -28 41 0 -21 37 -86 65 -114 15 -15 39 -27 52
-27 26 0 77 47 88 81 12 35 25 20 25 -30 0 -89 43 -172 96 -185 38 -10 115 29
170 86 l49 52 -50 -44 c-55 -47 -117 -79 -153 -80 -56 0 -90 73 -101 215 l-6
80 -35 -70z"/>
<path d="M3501 6697 c-6 -18 -25 -47 -42 -63 -25 -24 -39 -29 -82 -29 -29 0
-65 4 -82 8 -22 5 -26 5 -15 -3 27 -18 90 -31 124 -24 43 8 93 56 106 102 12
46 5 54 -9 9z"/>
<path d="M2415 6660 c-9 -18 -29 -36 -46 -42 -17 -6 -28 -12 -25 -15 2 -3 20
0 39 6 24 8 39 22 47 42 17 41 5 48 -15 9z"/>
<path d="M2667 6640 c-4 -16 -18 -37 -33 -46 -27 -18 -21 -19 -154 11 -14 3 0
-4 30 -15 72 -28 115 -28 145 0 23 22 38 67 25 75 -4 3 -10 -9 -13 -25z"/>
<path d="M2110 6657 c0 -2 15 -16 33 -33 l32 -29 -29 33 c-28 30 -36 37 -36
29z"/>
<path d="M3185 6570 c4 -14 9 -53 12 -86 5 -54 3 -64 -16 -83 -37 -37 -135
-20 -273 50 l-59 30 42 -43 c38 -40 41 -45 36 -88 -5 -40 -4 -43 9 -25 17 23
18 67 2 84 -11 12 -9 13 7 6 148 -60 200 -67 242 -31 25 21 28 31 26 78 -1 29
-9 71 -17 93 -9 22 -14 29 -11 15z"/>
<path d="M1883 6524 c-6 -17 6 -45 23 -51 21 -7 47 23 40 45 -9 27 -53 30 -63
6z"/>
<path d="M4005 6380 c-10 -11 -16 -22 -14 -24 2 -2 12 7 22 20 22 29 17 32 -8
4z"/>
<path d="M3069 8948 c-70 -89 -83 -108 -75 -108 8 0 148 181 143 186 -2 2 -33
-33 -68 -78z"/>
<path d="M6901 6813 c0 -18 -12 -117 -26 -220 -48 -351 -113 -622 -172 -708
-18 -27 -21 -35 -8 -25 49 40 113 250 160 530 32 196 58 403 52 431 -3 19 -5
17 -6 -8z"/>
<path d="M5170 5840 c-8 -5 -10 -10 -5 -10 6 0 17 5 25 10 8 5 11 10 5 10 -5
0 -17 -5 -25 -10z"/>
<path d="M5870 5741 c-25 -10 -66 -25 -93 -35 -26 -10 -45 -21 -42 -26 4 -6
180 62 194 76 9 8 -16 2 -59 -15z"/>
<path d="M5350 5740 c-8 -5 -10 -10 -5 -10 6 0 17 5 25 10 8 5 11 10 5 10 -5
0 -17 -5 -25 -10z"/>
<path d="M6050 5690 c-8 -5 -10 -10 -5 -10 6 0 17 5 25 10 8 5 11 10 5 10 -5
0 -17 -5 -25 -10z"/>
<path d="M6889 5419 c-106 -209 -124 -257 -49 -131 41 69 164 331 158 337 -2
2 -51 -91 -109 -206z"/>
<path d="M3511 4575 c236 -265 383 -425 392 -425 6 0 -3 15 -19 33 -156 168
-344 369 -373 397 l-36 35 36 -40z"/>
<path d="M4348 4293 c6 -2 18 -2 25 0 6 3 1 5 -13 5 -14 0 -19 -2 -12 -5z"/>
<path d="M4115 4069 c17 -6 82 -12 145 -14 l115 -3 -105 7 c-58 5 -123 11
-145 14 -37 6 -38 6 -10 -4z"/>
<path d="M6785 3880 c10 -11 20 -20 23 -20 3 0 -3 9 -13 20 -10 11 -20 20 -23
20 -3 0 3 -9 13 -20z"/>
<path d="M6858 3843 c6 -2 18 -2 25 0 6 3 1 5 -13 5 -14 0 -19 -2 -12 -5z"/>
<path d="M5872 3655 c-64 -132 -198 -203 -391 -206 l-66 -1 45 -10 c97 -22
252 22 336 95 36 32 112 152 102 162 -2 3 -14 -16 -26 -40z"/>
<path d="M5901 8119 c-56 -77 -60 -174 -10 -274 27 -54 120 -152 194 -205 38
-26 25 -10 -56 70 -128 127 -153 172 -154 276 0 63 4 77 32 122 38 62 35 68
-6 11z"/>
<path d="M6172 6960 c0 -14 2 -19 5 -12 2 6 2 18 0 25 -3 6 -5 1 -5 -13z"/>
<path d="M6412 6940 c0 -19 2 -27 5 -17 2 9 2 25 0 35 -3 9 -5 1 -5 -18z"/>
<path d="M6421 6765 c-1 -71 -5 -136 -10 -144 -14 -22 -38 -6 -69 49 -17 29
-32 48 -35 43 -7 -12 51 -102 75 -117 44 -27 65 58 50 209 l-9 90 -2 -130z"/>
<path d="M7080 4795 c0 -5 5 -17 10 -25 5 -8 10 -10 10 -5 0 6 -5 17 -10 25
-5 8 -10 11 -10 5z"/>
<path d="M5135 4704 c128 -63 294 -115 386 -121 46 -4 79 -2 82 4 4 7 -28 12
-86 15 -104 6 -236 44 -376 109 -113 53 -118 48 -6 -7z"/>
<path d="M7422 4178 c-78 -165 -215 -414 -265 -480 -21 -27 -36 -52 -34 -54 5
-6 74 84 120 156 59 94 254 497 244 506 -2 2 -31 -55 -65 -128z"/>
<path d="M7550 3943 c0 -30 -102 -280 -152 -375 -82 -154 -183 -236 -259 -209
-17 6 -53 24 -79 40 -48 30 -48 30 -54 8 -9 -36 -6 -90 8 -122 l12 -30 7 31
c4 21 13 33 29 38 19 5 32 -3 69 -43 l47 -50 11 27 c5 15 11 40 13 57 2 20 9
31 22 33 18 4 18 -2 14 -110 -5 -130 8 -103 19 37 l6 89 49 50 48 49 1 -144
c2 -112 4 -132 9 -89 5 30 8 101 9 158 1 101 2 105 46 195 25 51 45 98 45 105
0 7 4 12 9 12 7 0 30 -69 62 -190 6 -25 22 -103 34 -175 l23 -130 2 130 c1 72
6 164 12 205 19 131 14 225 -17 320 -28 89 -45 120 -45 83z"/>
<path d="M6880 3245 c0 -19 69 -331 102 -459 100 -393 206 -628 308 -681 37
-19 66 -8 107 38 28 32 82 148 97 207 l6 25 -12 -25 c-6 -14 -28 -62 -49 -107
-64 -140 -106 -162 -180 -96 -77 69 -173 306 -259 637 -35 132 -90 369 -90
384 0 3 35 -64 78 -149 85 -170 169 -304 234 -376 46 -49 114 -103 131 -103 6
0 -9 13 -34 28 -98 63 -192 198 -325 468 -52 105 -94 197 -94 203 0 6 -4 11
-10 11 -5 0 -10 -2 -10 -5z"/>
<path d="M6592 3145 c0 -16 2 -22 5 -12 2 9 2 23 0 30 -3 6 -5 -1 -5 -18z"/>
<path d="M6604 2975 c0 -77 2 -107 3 -67 2 40 2 103 0 140 -2 37 -3 4 -3 -73z"/>
<path d="M6801 2904 c0 -11 3 -14 6 -6 3 7 2 16 -1 19 -3 4 -6 -2 -5 -13z"/>
<path d="M6812 2865 c0 -11 4 -31 8 -45 6 -20 8 -21 8 -5 0 11 -4 31 -8 45 -6
20 -8 21 -8 5z"/>
<path d="M6591 2804 c0 -11 3 -14 6 -6 3 7 2 16 -1 19 -3 4 -6 -2 -5 -13z"/>
<path d="M5555 2602 c17 -17 272 -147 415 -212 257 -117 530 -192 680 -189 34
1 27 4 -30 10 -250 28 -509 118 -895 311 -99 49 -175 85 -170 80z"/>
<path d="M5292 2452 c264 -134 597 -314 1058 -570 364 -202 338 -188 325 -175
-10 10 -469 272 -795 453 -304 169 -783 410 -816 410 -3 0 100 -53 228 -118z"/>
<path d="M7390 2540 c-23 -7 -23 -8 -3 -9 12 -1 25 4 28 9 3 6 5 10 3 9 -2 -1
-14 -5 -28 -9z"/>
<path d="M7532 2410 c0 -14 2 -19 5 -12 2 6 2 18 0 25 -3 6 -5 1 -5 -13z"/>
<path d="M6240 2257 c0 -5 160 -92 483 -261 70 -37 127 -65 127 -63 0 5 -160
92 -482 261 -71 37 -128 65 -128 63z"/>
<path d="M6718 2213 c6 -2 18 -2 25 0 6 3 1 5 -13 5 -14 0 -19 -2 -12 -5z"/>
<path d="M6610 2185 c0 -11 34 -37 225 -173 197 -140 241 -169 231 -154 -3 6
-88 69 -188 140 -101 72 -202 144 -225 162 -24 17 -43 29 -43 25z"/>
<path d="M6690 1696 c0 -3 9 -10 20 -16 11 -6 20 -8 20 -6 0 3 -9 10 -20 16
-11 6 -20 8 -20 6z"/>
<path d="M7348 1263 c7 -3 16 -2 19 1 4 3 -2 6 -13 5 -11 0 -14 -3 -6 -6z"/>
<path d="M7416 1241 c22 -10 58 -33 80 -52 23 -20 31 -24 19 -10 -25 30 -104
81 -124 81 -9 0 2 -9 25 -19z"/>
<path d="M7620 950 c41 -4 91 -11 110 -15 28 -6 33 -5 23 5 -7 8 -47 14 -110
16 l-98 2 75 -8z"/>
<path d="M7299 755 c65 -37 114 -79 144 -123 22 -31 37 -41 80 -52 75 -19 202
-74 245 -106 33 -25 35 -25 17 -4 -24 28 -156 91 -240 115 -51 15 -68 26 -114
77 -48 53 -140 118 -166 118 -5 0 10 -11 34 -25z"/>
</g>
</svg>
