<?xml version="1.0" standalone="no"?>
<!DOCTYPE svg PUBLIC "-//W3C//DTD SVG 20010904//EN"
 "http://www.w3.org/TR/2001/REC-SVG-20010904/DTD/svg10.dtd">
<svg version="1.0" xmlns="http://www.w3.org/2000/svg"
 width="1280.000000pt" height="768.000000pt" viewBox="0 0 1280.000000 768.000000"
 preserveAspectRatio="xMidYMid meet">
<metadata>
Created by potrace 1.15, written by Peter Selinger 2001-2017
</metadata>
<g transform="translate(0.000000,768.000000) scale(0.100000,-0.100000)"
fill="#000000" stroke="none">
<path d="M2240 7583 c-197 -32 -376 -108 -598 -256 -174 -115 -288 -211 -340
-286 -22 -31 -52 -63 -66 -71 -14 -7 -26 -18 -26 -24 -1 -18 -44 -46 -236
-151 -22 -13 -59 -35 -82 -49 -23 -14 -46 -26 -52 -26 -5 0 -10 -4 -10 -10 0
-5 -6 -10 -13 -10 -7 0 -35 -15 -62 -33 -28 -17 -79 -47 -115 -66 -94 -48
-234 -145 -312 -213 -62 -55 -172 -197 -211 -274 -21 -41 -55 -166 -50 -181
11 -31 61 -5 76 40 5 14 19 17 79 17 109 0 312 26 503 65 167 34 186 36 293
34 29 0 59 4 65 9 7 5 86 8 177 7 l165 -2 100 -40 c119 -48 280 -157 374 -253
68 -69 137 -169 226 -328 95 -169 273 -418 380 -532 124 -133 307 -371 400
-521 32 -52 74 -119 95 -149 20 -30 45 -71 55 -90 10 -19 31 -52 48 -73 16
-21 61 -89 100 -150 38 -61 95 -142 126 -180 31 -38 63 -79 71 -91 24 -36 179
-223 261 -316 80 -89 455 -464 500 -499 l26 -20 -42 -83 c-29 -56 -45 -102
-49 -141 l-6 -57 26 6 c24 6 26 5 19 -17 -4 -13 -18 -44 -31 -69 -13 -25 -24
-51 -24 -59 0 -8 -20 -51 -45 -97 -25 -45 -45 -92 -45 -104 0 -12 -5 -31 -12
-43 -11 -22 -33 -105 -46 -180 -6 -32 -19 -47 -97 -107 -248 -194 -284 -224
-293 -244 -5 -13 -42 -41 -80 -64 -39 -23 -84 -55 -100 -72 -17 -17 -51 -39
-75 -49 -25 -11 -59 -37 -78 -60 -18 -23 -37 -41 -42 -41 -20 0 -77 -33 -77
-45 0 -6 -11 -17 -25 -23 -14 -7 -29 -20 -32 -29 -11 -29 -193 -201 -227 -214
-17 -7 -47 -25 -66 -40 -19 -15 -53 -32 -75 -38 -22 -6 -49 -17 -60 -24 -26
-19 -73 -25 -225 -33 -109 -5 -130 -9 -170 -31 -58 -33 -70 -49 -70 -90 0 -33
13 -45 23 -20 8 21 71 47 114 47 32 0 41 -5 61 -35 18 -29 28 -35 56 -35 18 0
45 9 59 20 18 15 34 19 54 14 54 -11 55 -12 43 -34 -8 -15 -15 -18 -27 -11
-11 6 -31 4 -56 -5 -22 -8 -47 -14 -57 -14 -10 0 -22 -6 -28 -13 -6 -7 -39
-14 -79 -15 -48 -2 -76 -9 -95 -22 -15 -11 -32 -20 -38 -20 -5 0 -10 -4 -10
-10 0 -5 -13 -10 -29 -10 -51 0 -95 -22 -149 -74 -53 -51 -106 -129 -100 -146
2 -6 22 8 45 29 51 48 88 68 140 77 38 6 40 5 46 -24 12 -61 122 -68 186 -11
46 40 59 27 60 -62 1 -93 10 -104 31 -37 19 62 62 122 102 144 26 13 27 12 48
-21 38 -61 98 -59 162 6 21 21 47 39 57 39 10 0 30 11 45 25 14 13 33 22 40
19 8 -3 36 4 63 16 59 25 189 154 198 197 12 50 14 53 47 53 18 0 49 5 68 10
36 11 73 6 212 -26 52 -12 75 -14 99 -5 26 9 35 8 55 -8 13 -10 39 -22 58 -25
19 -4 39 -13 46 -21 18 -21 109 -20 140 2 33 22 40 33 40 64 0 39 23 52 76 46
80 -9 144 -77 150 -160 3 -45 7 -52 28 -44 37 14 47 144 15 197 -70 116 -151
139 -416 118 -150 -13 -304 15 -368 66 -26 21 -28 26 -18 47 7 13 15 39 19 58
10 52 252 287 443 431 41 30 85 67 100 81 44 44 113 89 136 89 13 0 28 7 35
16 8 8 28 21 46 29 17 7 40 27 50 44 10 17 26 31 36 31 9 0 19 4 22 9 6 10 95
62 161 96 59 30 87 52 179 141 48 47 91 98 101 122 11 23 22 42 27 42 4 0 20
-22 36 -50 16 -27 31 -47 35 -44 13 13 40 -68 49 -143 3 -25 16 -12 22 22 4
19 11 35 17 35 12 0 52 -39 67 -65 6 -11 13 -17 17 -14 3 4 -15 30 -39 59 -25
30 -43 56 -40 59 3 3 16 -6 29 -21 13 -16 30 -28 38 -28 7 0 24 -11 37 -25 13
-14 29 -25 36 -25 6 0 17 -7 24 -15 7 -9 27 -26 44 -37 l31 -22 -25 29 c-23
27 -21 26 20 -6 25 -20 56 -42 70 -49 14 -7 28 -17 31 -23 4 -5 27 -10 53 -11
25 0 46 -5 46 -9 0 -4 13 -12 28 -18 15 -5 36 -23 46 -40 20 -34 34 -33 16 1
-10 19 -8 19 30 -6 22 -15 42 -25 44 -23 3 2 -11 22 -30 43 -19 21 -32 41 -30
44 3 2 28 -12 56 -32 27 -20 54 -36 59 -36 5 0 14 -7 21 -15 14 -17 35 -21 24
-4 -11 18 39 -12 63 -38 22 -23 81 -34 67 -12 -4 8 1 9 17 4 19 -6 14 2 -24
45 -26 29 -47 58 -47 66 0 8 -15 23 -32 35 l-33 20 30 -6 c17 -4 43 -11 59
-16 29 -9 29 -9 11 11 -18 20 -18 21 11 18 16 -1 35 2 42 6 8 4 36 10 65 12
38 2 59 -2 83 -16 39 -25 45 -25 37 -2 -6 15 -5 15 11 3 14 -12 19 -12 25 -2
7 10 15 9 42 -4 19 -10 41 -23 49 -30 21 -18 75 -32 66 -16 -4 6 -2 11 4 11 7
0 3 14 -9 36 -18 30 -19 35 -6 30 9 -3 23 -6 31 -6 8 0 14 -5 14 -11 0 -5 -6
-7 -12 -4 -7 4 -4 -1 6 -9 21 -17 38 -20 50 -9 3 4 14 8 24 9 15 2 14 1 -2
-12 -19 -13 -18 -14 15 -14 25 0 30 3 19 10 -17 11 -12 13 45 14 18 1 29 6 27
14 -1 6 2 12 8 12 5 0 10 -6 10 -14 0 -7 11 -16 25 -18 21 -5 25 -2 20 13 -6
18 1 19 82 21 48 1 104 3 123 5 19 1 42 3 52 4 9 0 18 8 21 18 3 11 20 23 43
29 l39 11 -37 -2 c-44 -3 -46 1 -15 28 14 12 38 20 67 21 25 0 47 2 50 4 11 6
121 13 150 9 32 -4 61 1 55 11 -3 6 1 10 9 10 9 0 16 5 16 10 0 6 10 14 22 19
16 6 31 1 57 -16 45 -31 126 -121 135 -151 4 -13 3 -62 -3 -110 -6 -48 -18
-150 -26 -227 -18 -168 -41 -310 -63 -385 -19 -64 -23 -257 -6 -268 20 -13 40
-67 43 -117 1 -33 10 -60 25 -80 27 -35 40 -103 27 -138 -5 -13 -34 -50 -65
-82 -54 -57 -58 -59 -116 -63 -65 -5 -110 -34 -110 -70 0 -27 28 -50 36 -29 7
19 75 47 112 47 15 0 38 -9 52 -20 31 -24 48 -25 100 -4 29 12 48 29 66 61 49
82 61 34 28 -107 -35 -145 -16 -222 65 -271 40 -24 48 -20 23 12 -23 29 -34
71 -33 119 2 44 13 55 40 38 18 -11 26 -11 49 2 30 17 47 75 19 64 -22 -8 -30
12 -11 30 27 28 18 169 -19 301 -6 22 -12 60 -14 84 -1 25 -7 56 -13 70 -6 15
-8 42 -5 61 3 19 8 62 11 95 7 81 6 79 51 94 55 18 210 135 235 177 11 19 26
34 34 34 8 0 26 11 40 25 16 16 36 25 57 25 49 0 104 42 117 89 12 44 7 64
-27 104 -13 16 -23 32 -23 36 0 4 21 18 48 32 42 21 60 24 167 24 96 0 119 3
117 14 -9 45 -136 88 -229 78 -109 -12 -183 -64 -372 -261 -28 -30 -70 -59
-151 -104 -89 -50 -90 -49 -90 64 0 52 4 125 10 162 5 37 16 118 25 180 14
100 43 210 76 295 12 27 51 38 64 17 3 -5 11 -10 16 -10 6 0 7 5 4 10 -8 13
11 13 38 -1 11 -7 22 -8 24 -3 2 5 32 8 68 6 36 -2 65 1 65 6 0 5 11 7 25 4
15 -2 25 0 25 7 0 6 11 11 24 11 14 0 31 6 38 13 7 8 19 12 27 9 7 -2 23 0 34
6 12 6 45 14 72 17 42 6 46 9 28 16 -13 5 -23 12 -23 17 0 5 -11 15 -25 22
-36 19 -16 37 51 46 44 5 52 9 44 20 -7 7 -21 14 -33 16 -14 2 -23 11 -25 26
-4 25 4 27 43 12 24 -9 26 -8 20 7 -16 39 -11 48 22 45 29 -2 32 1 29 20 -2
15 7 33 25 51 27 27 35 28 161 37 236 17 325 20 788 24 322 3 503 9 620 21
179 18 200 17 305 -14 39 -11 135 -39 215 -61 80 -23 168 -48 195 -56 112 -33
715 -184 795 -199 36 -7 139 -30 230 -53 152 -37 243 -56 390 -81 30 -5 108
-21 173 -35 85 -19 142 -26 205 -24 48 1 94 -2 101 -6 22 -14 124 -35 166 -35
58 0 109 28 113 61 2 15 -2 36 -8 48 -9 17 -7 28 9 56 32 54 30 84 -14 155
-21 35 -51 80 -67 100 -15 20 -28 47 -28 58 0 57 -102 178 -180 212 -24 11
-74 48 -110 83 -38 36 -90 74 -125 91 -33 15 -86 48 -118 72 -59 46 -187 106
-312 148 -38 13 -95 33 -126 44 -99 36 -440 131 -468 131 -16 0 -73 11 -127
24 -54 14 -132 30 -171 35 -40 6 -87 19 -105 29 -18 10 -91 49 -163 87 -71 37
-141 78 -155 91 -14 12 -51 36 -82 53 -32 17 -83 44 -113 61 -31 17 -62 30
-71 30 -16 0 -288 139 -377 193 -30 18 -82 58 -118 89 -35 31 -125 101 -200
155 -75 54 -157 114 -184 133 -26 19 -60 42 -74 50 -14 8 -57 35 -96 59 -61
38 -263 160 -550 331 -107 64 -134 79 -315 180 -161 89 -354 204 -381 227 -17
14 -206 112 -504 261 -172 86 -312 165 -495 281 -36 22 -81 49 -100 60 -19 10
-80 53 -135 95 -344 261 -566 395 -960 576 -132 60 -386 166 -495 205 -36 13
-92 36 -125 51 -146 65 -479 163 -630 184 -159 23 -181 27 -228 46 -26 11 -56
27 -67 37 -11 9 -50 32 -87 50 -38 18 -122 70 -188 114 -66 44 -169 105 -230
135 -156 78 -174 88 -180 99 -4 5 -15 9 -25 9 -10 0 -30 14 -43 30 -14 17 -29
30 -32 30 -4 0 -13 7 -21 15 -9 8 -27 15 -42 15 -25 0 -25 1 -6 15 18 14 18
14 -6 15 -43 1 -73 12 -58 21 9 6 2 9 -20 9 -18 0 -47 8 -65 17 -32 17 -100
36 -192 55 -27 5 -55 14 -62 20 -7 5 -61 14 -120 19 -59 5 -144 14 -188 19
-77 10 -244 11 -295 3z m3411 -5720 c13 -16 12 -17 -3 -4 -10 7 -18 15 -18 17
0 8 8 3 21 -13z"/>
</g>
</svg>
